<?xml version="1.0" encoding="utf-8"?>
<!-- Generator: Adobe Illustrator 15.1.0, SVG Export Plug-In . SVG Version: 6.00 Build 0)  -->
<!DOCTYPE svg PUBLIC "-//W3C//DTD SVG 1.1//EN" "http://www.w3.org/Graphics/SVG/1.1/DTD/svg11.dtd">
<svg version="1.1" id="Layer_1" xmlns="http://www.w3.org/2000/svg" xmlns:xlink="http://www.w3.org/1999/xlink" x="0px" y="0px"
	 width="32px" height="32px" viewBox="0 0 32 32" enable-background="new 0 0 32 32" xml:space="preserve">
<g>
	<path fill="#FFFFFF" d="M29.913,19.286c0,5.739-4.629,10.394-10.337,10.394h-7.142c-5.708,0-10.337-4.654-10.337-10.394v-6.687
		c0-5.741,4.628-10.395,10.337-10.395h7.142c5.708,0,10.337,4.654,10.337,10.395V19.286z"/>
	<g>
		<path fill="#00A99D" d="M28.298,17.493c-0.587,9.504-8.646,10.261-16.154,10.261c-4.617,0-8.432-1.523-8.432-6.831
			c0-2.177,0-4.354,0-6.531c0-9.527,9.028-10.263,16.155-10.263c4.617,0,8.431,1.525,8.431,6.833
			C28.298,13.139,28.298,15.316,28.298,17.493c0,1.285,3.23,3.39,3.23,3.586c0-7.451-0.654-15.934-8.554-19.578
			c-3.744-1.728-7.943-1.223-11.969-1.223C4.931,0.279,0.84,5.01,0.482,10.806c-0.455,7.362,0.955,16.072,8.553,19.577
			c3.744,1.727,7.943,1.223,11.969,1.223c6.074,0,10.166-4.73,10.524-10.526C31.604,19.84,28.291,17.613,28.298,17.493z"/>
	</g>
</g>
<text transform="matrix(0.5845 -0.0573 0.0975 0.9952 4.8359 23.8418)" fill="#00A99D" font-family="'SegoeScript-Bold'" font-size="20.7269">SM!</text>
</svg>
